# xmcd
#
# Track frame offsets:
#	150
#	18300
#	37585
#	57173
#	84635
#	105860
#	123081
#	147231
#	170437
#	195893
#
# Disc length: 2894 seconds
# Revision: 0
# Processed by: cddbd v1.5.2PL0 Copyright (c) Steve Scherf et al.
# Submitted via: dBpowerAMP V12.0
#
DISCID=6a0b4c0a
DTITLE=Wily Bo Walker - Moon over Indigo
DYEAR=2015
DGENRE=Blues
TTITLE0=Walking with the Devil (Voodoo Mix) feat. Graham Hine
TTITLE1=I Want to Know (NY Funk Mix)
TTITLE2=Walk in Chinese Footsteps (Free Tibet Mix)
TTITLE3=Moon over Indigo
TTITLE4=When the Angels Call Your Time (Bourbon Street Mix)
TTITLE5=Drive
TTITLE6=Same Thing
TTITLE7=For The Children
TTITLE8=Jenny (Traces in my Arms)
TTITLE9=Who Do You Love (NY Chiller Mix)
EXTD=
EXTT0=
EXTT1=
EXTT2=
EXTT3=
EXTT4=
EXTT5=
EXTT6=
EXTT7=
EXTT8=
EXTT9=
PLAYORDER=
